<svg width="77" height="21" viewBox="0 0 77 21" fill="none" xmlns="http://www.w3.org/2000/svg">
<path d="M12.4031 5.48499C11.7062 5.70469 10.9324 5.42232 10.5805 4.78134C10.0551 3.82477 9.00111 2.92482 7.14459 2.92482C5.15822 2.92482 3.7781 4.24907 3.7781 5.73942C3.7781 6.98138 4.55045 7.91907 6.06798 8.25051L8.88258 8.82959C12.3314 9.51964 14.1803 11.6993 14.1803 14.4588C14.1803 17.4938 11.7243 20.3907 7.25482 20.3907C3.26547 20.3907 1.00277 18.3251 0.109615 16.0541C-0.230884 15.1881 0.251554 14.2172 1.14621 13.9612L1.23077 13.9371C2.00086 13.7174 2.81172 14.11 3.11824 14.8491C3.71846 16.2957 5.08499 17.4115 7.25482 17.4115C9.60057 17.4115 10.8138 16.2247 10.8138 14.7072C10.8138 13.438 9.87614 12.4173 8.19252 12.0587L5.43379 11.4788C2.45385 10.8718 0.46748 8.91263 0.46748 5.98781C0.46748 2.70437 3.47535 0 7.11741 0C10.5171 0 12.3842 1.53187 13.3076 3.21021C13.7892 4.08751 13.3566 5.18526 12.4031 5.48499Z" fill="white"/>
<path d="M17.2722 18.3908V8.12676C17.2722 7.25022 17.9887 6.54053 18.8728 6.54053C19.7569 6.54053 20.4734 7.25097 20.4734 8.12676V18.3908C20.4734 19.2674 19.7569 19.977 18.8728 19.977C17.9887 19.9778 17.2722 19.2674 17.2722 18.3908Z" fill="white"/>
<path d="M26.7368 13.2445C26.7368 15.9489 28.4748 17.4664 30.4891 17.4664C31.947 17.4664 32.8582 16.759 33.3799 15.9851C33.7582 15.4242 34.4815 15.2105 35.1179 15.4408C36.0405 15.7753 36.4044 16.8934 35.8465 17.702C34.831 19.1742 33.0636 20.3905 30.4891 20.3905C26.5435 20.3905 23.5356 17.3275 23.5356 13.2438C23.5356 9.10494 26.5435 6.125 30.406 6.125C33.0628 6.125 34.8401 7.34733 35.8148 8.84975C36.341 9.66136 35.9801 10.7516 35.0719 11.0838L35.0205 11.1026C34.3637 11.3427 33.611 11.1147 33.2388 10.5228C32.7382 9.72629 31.8632 9.07776 30.434 9.07776C28.4748 9.07851 26.7368 10.5409 26.7368 13.2445Z" fill="white"/>
<path d="M39.5115 18.3769V1.60106C39.5115 0.716973 40.237 0.000488281 41.1324 0.000488281C42.0279 0.000488281 42.7534 0.716973 42.7534 1.60106V18.3769C42.7534 19.261 42.0279 19.9775 41.1324 19.9775C40.237 19.9775 39.5115 19.261 39.5115 18.3769Z" fill="white"/>
<path d="M59.7363 13.2448C59.7363 17.3836 56.7843 20.3915 52.7557 20.3915C48.755 20.3915 45.8022 17.3844 45.8022 13.2448C45.8022 9.13385 48.755 6.12598 52.7557 6.12598C56.7843 6.12673 59.7363 9.13385 59.7363 13.2448ZM56.508 13.2448C56.508 10.4581 54.7421 9.02362 52.7557 9.02362C50.7965 9.02362 49.0034 10.4581 49.0034 13.2448C49.0034 16.0314 50.7972 17.5218 52.7557 17.5218C54.7421 17.5218 56.508 16.0594 56.508 13.2448Z" fill="white"/>
<path d="M18.3939 2.54274C17.9137 3.03499 17.7717 3.34982 17.8042 3.80432C17.8661 4.6635 18.5486 4.99569 19.0854 4.95643C19.3187 4.93982 19.5739 4.89603 20.1266 4.42341L22.1175 2.72997C22.649 2.28529 22.9177 1.78322 22.883 1.30229C22.8468 0.797204 22.4557 -0.0634811 21.5203 0.00371281C20.9601 0.0444822 20.4557 0.538245 20.0178 0.976138L18.3939 2.54274Z" fill="white"/>
<path d="M75.2422 11.6124L71.6319 11.6305C71.4333 11.6313 71.2717 11.4712 71.2717 11.2742V7.67438C71.2717 6.71252 70.482 5.93262 69.5073 5.93262C68.5326 5.93262 67.7429 6.71252 67.7429 7.67438V11.2953C67.7429 11.4916 67.5836 11.6509 67.3866 11.6516L63.9287 11.669C62.9631 11.6735 62.184 12.4648 62.1892 13.4349C62.1938 14.4051 62.9805 15.188 63.9468 15.1835L67.3836 15.1661C67.5821 15.1654 67.7437 15.3254 67.7437 15.5225V18.9433C67.7437 19.9052 68.5334 20.6851 69.5081 20.6851C70.4828 20.6851 71.2725 19.9052 71.2725 18.9433V15.5021C71.2725 15.3058 71.4318 15.1465 71.6289 15.1457L75.2603 15.1276C76.226 15.1231 77.0051 14.3319 76.9998 13.3617C76.9946 12.3908 76.2079 11.6079 75.2422 11.6124Z" fill="#D7FF91"/>
</svg>
